<?xml version="1.0" standalone="no"?><!DOCTYPE svg PUBLIC "-//W3C//DTD SVG 1.1//EN" "http://www.w3.org/Graphics/SVG/1.1/DTD/svg11.dtd"><svg t="1618510864829" class="icon" viewBox="0 0 1024 1024" version="1.1" xmlns="http://www.w3.org/2000/svg" p-id="20793" xmlns:xlink="http://www.w3.org/1999/xlink" width="200" height="200"><defs><style type="text/css"></style></defs><path d="M85.333333 170.368A42.666667 42.666667 0 0 1 127.658667 128h768.682666c23.381333 0 42.325333 18.986667 42.325334 42.368v683.264a42.666667 42.666667 0 0 1-42.325334 42.368H127.658667A42.368 42.368 0 0 1 85.333333 853.632V170.368zM170.666667 213.333333v597.333334h682.666666V213.333333H170.666667z m85.333333 85.333334h256v256H256V298.666667z m85.333333 85.333333v85.333333h85.333334V384H341.333333z m-85.333333 256h512v85.333333H256v-85.333333z m341.333333-341.333333h170.666667v85.333333h-170.666667V298.666667z m0 170.666666h170.666667v85.333334h-170.666667v-85.333334z" p-id="20794"></path></svg>