<?xml version="1.0" standalone="no"?><!DOCTYPE svg PUBLIC "-//W3C//DTD SVG 1.1//EN" "http://www.w3.org/Graphics/SVG/1.1/DTD/svg11.dtd"><svg t="1619333725695" class="icon" viewBox="0 0 1024 1024" version="1.1" xmlns="http://www.w3.org/2000/svg" p-id="20933" xmlns:xlink="http://www.w3.org/1999/xlink" width="200" height="200"><defs><style type="text/css"></style></defs><path d="M512 938.666667C276.352 938.666667 85.333333 747.648 85.333333 512c0-191.061333 125.568-352.768 298.666667-407.125333v90.624A341.461333 341.461333 0 0 0 512 853.333333a341.461333 341.461333 0 0 0 316.501333-213.333333h90.624c-54.357333 173.098667-216.064 298.666667-407.125333 298.666667z m424.533333-384H469.333333V87.466667c14.037333-1.408 28.288-2.133333 42.666667-2.133334 235.648 0 426.666667 191.018667 426.666667 426.666667 0 14.378667-0.725333 28.629333-2.133334 42.666667zM554.666667 173.312V469.333333h296.021333A341.504 341.504 0 0 0 554.666667 173.312z" p-id="20934"></path></svg>