<?xml version="1.0" standalone="no"?><!DOCTYPE svg PUBLIC "-//W3C//DTD SVG 1.1//EN" "http://www.w3.org/Graphics/SVG/1.1/DTD/svg11.dtd"><svg t="1619333543432" class="icon" viewBox="0 0 1024 1024" version="1.1" xmlns="http://www.w3.org/2000/svg" p-id="20537" xmlns:xlink="http://www.w3.org/1999/xlink" width="200" height="200"><defs><style type="text/css"></style></defs><path d="M170.666667 262.101333v547.157334l216.106666-92.586667 256 128L853.333333 754.346667V207.232l55.594667-23.808a21.333333 21.333333 0 0 1 29.738667 19.626667V810.666667l-298.666667 128-256-128-268.928 115.242666a21.333333 21.333333 0 0 1-29.738667-19.626666V298.666667l85.333334-36.565334z m522.368 217.6L512 660.693333l-181.034667-180.992a256 256 0 1 1 362.069334 0zM512 540.032l120.661333-120.704a170.666667 170.666667 0 1 0-241.322666 0L512 540.032z" p-id="20538"></path></svg>