<?xml version="1.0" standalone="no"?><!DOCTYPE svg PUBLIC "-//W3C//DTD SVG 1.1//EN" "http://www.w3.org/Graphics/SVG/1.1/DTD/svg11.dtd"><svg t="1618510998908" class="icon" viewBox="0 0 1024 1024" version="1.1" xmlns="http://www.w3.org/2000/svg" p-id="21053" xmlns:xlink="http://www.w3.org/1999/xlink" width="200" height="200"><defs><style type="text/css"></style></defs><path d="M298.666667 384a106.666667 106.666667 0 1 0 0-213.333333 106.666667 106.666667 0 0 0 0 213.333333z m0 85.333333a192 192 0 1 1 0-384 192 192 0 0 1 0 384z m448 85.333334a85.333333 85.333333 0 1 0 0-170.666667 85.333333 85.333333 0 0 0 0 170.666667z m0 85.333333a170.666667 170.666667 0 1 1 0-341.333333 170.666667 170.666667 0 0 1 0 341.333333z m106.666666 256v-21.333333a106.666667 106.666667 0 1 0-213.333333 0v21.333333h-85.333333v-21.333333a192 192 0 1 1 384 0v21.333333h-85.333334z m-426.666666 0v-170.666667a128 128 0 0 0-256 0v170.666667H85.333333v-170.666667a213.333333 213.333333 0 0 1 426.666667 0v170.666667h-85.333333z" p-id="21054"></path></svg>