<?xml version="1.0" standalone="no"?><!DOCTYPE svg PUBLIC "-//W3C//DTD SVG 1.1//EN" "http://www.w3.org/Graphics/SVG/1.1/DTD/svg11.dtd"><svg t="1619333606126" class="icon" viewBox="0 0 1024 1024" version="1.1" xmlns="http://www.w3.org/2000/svg" p-id="20669" xmlns:xlink="http://www.w3.org/1999/xlink" width="200" height="200"><defs><style type="text/css"></style></defs><path d="M682.666667 853.333333V170.666667H170.666667v640a42.666667 42.666667 0 0 0 42.666666 42.666666h469.333334z m128 85.333334H213.333333a128 128 0 0 1-128-128V128a42.666667 42.666667 0 0 1 42.666667-42.666667h597.333333a42.666667 42.666667 0 0 1 42.666667 42.666667v298.666667h170.666667v384a128 128 0 0 1-128 128z m-42.666667-426.666667v298.666667a42.666667 42.666667 0 0 0 85.333333 0v-298.666667h-85.333333zM256 256h256v256H256V256z m85.333333 85.333333v85.333334h85.333334V341.333333H341.333333z m-85.333333 213.333334h341.333333v85.333333H256v-85.333333z m0 128h341.333333v85.333333H256v-85.333333z" p-id="20670"></path></svg>